<svg id="Layer_1" data-name="Layer 1" xmlns="http://www.w3.org/2000/svg" viewBox="0 0 105 105"><title>pause-icon</title><path d="M71.18,31.06a1,1,0,0,1,1,1V75.17a1,1,0,0,1-1,1H65.07a1,1,0,0,1-1-1V32.09a1,1,0,0,1,1-1h6.11m0-6H65.07a7,7,0,0,0-7,7V75.17a7,7,0,0,0,7,7h6.11a7,7,0,0,0,7-7V32.09a7,7,0,0,0-7-7Z"/><path d="M39.67,31.06a1,1,0,0,1,1,1V75.17a1,1,0,0,1-1,1H33.56a1,1,0,0,1-1-1V32.09a1,1,0,0,1,1-1h6.11m0-6H33.56a7,7,0,0,0-7,7V75.17a7,7,0,0,0,7,7h6.11a7,7,0,0,0,7-7V32.09a7,7,0,0,0-7-7Z"/></svg>