<svg id="Layer_1" data-name="Layer 1" xmlns="http://www.w3.org/2000/svg" viewBox="0 0 105 105"><title>sort-up-icon</title><path d="M52,47l-2.37,3.38a1.26,1.26,0,0,1-1.75.3l-18.52-13L12.59,50.53a1.25,1.25,0,0,1-1.76-.24L8.31,47a1.26,1.26,0,0,1,.24-1.76L26.63,31.38a4.44,4.44,0,0,1,5.27-.11l19.84,14A1.26,1.26,0,0,1,52,47Z"/><path d="M26,37.62h6.71V72.55a1.25,1.25,0,0,1-1.26,1.26H27.3A1.26,1.26,0,0,1,26,72.55Z"/><path d="M82.75,56.29H56.62a1.48,1.48,0,0,1-1.38-1.57V49.54A1.48,1.48,0,0,1,56.62,48H82.75a1.48,1.48,0,0,1,1.39,1.56v5.18A1.48,1.48,0,0,1,82.75,56.29Z"/><path d="M95.16,40.05H56.07a1.47,1.47,0,0,1-1.33-1.57V33.3a1.46,1.46,0,0,1,1.33-1.56H95.16a1.46,1.46,0,0,1,1.32,1.56v5.18A1.46,1.46,0,0,1,95.16,40.05Z"/><rect x="55.24" y="64.22" width="16.24" height="8.3" rx="1.56"/></svg>