<svg id="Layer_1" data-name="Layer 1" xmlns="http://www.w3.org/2000/svg" viewBox="0 0 105 105"><title>sort-down-icon</title><path d="M8.63,58,11,54.58a1.26,1.26,0,0,1,1.75-.3l18.52,13L48.08,54.4a1.26,1.26,0,0,1,1.76.23l2.51,3.28a1.25,1.25,0,0,1-.23,1.76L34,73.55a4.46,4.46,0,0,1-5.28.11L8.93,59.71A1.25,1.25,0,0,1,8.63,58Z"/><path d="M34.62,67.31h-6.7V32.38a1.25,1.25,0,0,1,1.26-1.26h4.18a1.25,1.25,0,0,1,1.26,1.26Z"/><path d="M83.1,57H57a1.48,1.48,0,0,1-1.39-1.56V50.21A1.48,1.48,0,0,1,57,48.64H83.1a1.48,1.48,0,0,1,1.38,1.57v5.18A1.48,1.48,0,0,1,83.1,57Z"/><path d="M95.5,40.71H56.41a1.46,1.46,0,0,1-1.32-1.56V34a1.46,1.46,0,0,1,1.32-1.57H95.5A1.47,1.47,0,0,1,96.83,34v5.18A1.46,1.46,0,0,1,95.5,40.71Z"/><rect x="55.58" y="64.88" width="16.24" height="8.3" rx="1.56"/></svg>