<svg id="Layer_1" data-name="Layer 1" xmlns="http://www.w3.org/2000/svg" viewBox="0 0 105 105"><title>stars-icon</title><path d="M42.45,12.49,48,23.71a2.83,2.83,0,0,0,2.12,1.54l12.38,1.8a2.81,2.81,0,0,1,1.56,4.79l-9,8.73a2.79,2.79,0,0,0-.81,2.49L56.39,55.4a2.81,2.81,0,0,1-4.07,3L41.24,52.53a2.8,2.8,0,0,0-2.61,0L27.55,58.36a2.81,2.81,0,0,1-4.08-3l2.12-12.34a2.82,2.82,0,0,0-.81-2.49l-9-8.73a2.81,2.81,0,0,1,1.55-4.79l12.39-1.8a2.83,2.83,0,0,0,2.12-1.54l5.54-11.22A2.8,2.8,0,0,1,42.45,12.49Z"/><path d="M80.73,37.07l2.6,5.28a2.83,2.83,0,0,0,2.12,1.54l5.83.84a2.81,2.81,0,0,1,1.56,4.79l-4.23,4.12a2.78,2.78,0,0,0-.8,2.48l1,5.81a2.81,2.81,0,0,1-4.07,3l-5.22-2.74a2.8,2.8,0,0,0-2.61,0l-5.21,2.74a2.81,2.81,0,0,1-4.08-3l1-5.81a2.82,2.82,0,0,0-.81-2.48l-4.22-4.12a2.81,2.81,0,0,1,1.56-4.79L71,43.89a2.83,2.83,0,0,0,2.11-1.54l2.61-5.28A2.81,2.81,0,0,1,80.73,37.07Z"/><path d="M45.07,66.11l2.61,5.28a2.83,2.83,0,0,0,2.11,1.54l5.83.84a2.81,2.81,0,0,1,1.56,4.79L53,82.68a2.82,2.82,0,0,0-.81,2.48l1,5.81a2.81,2.81,0,0,1-4.07,3l-5.22-2.74a2.8,2.8,0,0,0-2.61,0L36,93.93A2.81,2.81,0,0,1,32,91l1-5.81a2.78,2.78,0,0,0-.8-2.48l-4.22-4.12a2.81,2.81,0,0,1,1.55-4.79l5.83-.84a2.83,2.83,0,0,0,2.12-1.54L40,66.11A2.8,2.8,0,0,1,45.07,66.11Z"/></svg>