<svg id="Layer_1" data-name="Layer 1" xmlns="http://www.w3.org/2000/svg" viewBox="0 0 335.37 80.32"><defs><style>.cls-1{fill:#fff;}</style></defs><title>brandmark</title><path class="cls-1" d="M177.56,30.35q-5.16-4.41-14.51-4.41a36.09,36.09,0,0,0-9.58,1.29,25.9,25.9,0,0,0-8.06,3.65l4.26,8.29A16.4,16.4,0,0,1,155,36.43a20.29,20.29,0,0,1,6.46-1.06q4.78,0,7.07,2.12a7.59,7.59,0,0,1,2.35,5.93h-9.42A26.79,26.79,0,0,0,151.34,45a11.75,11.75,0,0,0-5.7,4.25,11.68,11.68,0,0,0-1.75,6.39A11.34,11.34,0,0,0,145.72,62,12.67,12.67,0,0,0,151,66.45a19.36,19.36,0,0,0,8.21,1.6A16.93,16.93,0,0,0,168,66a10.35,10.35,0,0,0,3.64-3.65v5.1h11.1V44.11Q182.73,34.75,177.56,30.35ZM167.45,58.7a10.41,10.41,0,0,1-5.32,1.37,8.36,8.36,0,0,1-4.94-1.3,4.64,4.64,0,0,1-.22-7.06c1.06-.92,3-1.37,5.77-1.37h8.13v4.18A8.21,8.21,0,0,1,167.45,58.7Z"/><path class="cls-1" d="M325.56,28.22a12.8,12.8,0,0,0-4.25,3.71V26.55H310V67.44h11.86V48.13q0-5.85,3-8.58a11.18,11.18,0,0,1,7.91-2.82,10.64,10.64,0,0,1,1.29.08c.41,0,.86,0,1.37.08V25.94A19.66,19.66,0,0,0,325.56,28.22Z"/><path class="cls-1" d="M128.12,31.93V26.55H116.79V67.44h11.86V48.13q0-5.85,3-8.58a11.17,11.17,0,0,1,7.91-2.82,10.64,10.64,0,0,1,1.29.08c.4,0,.86,0,1.37.08V25.94a19.66,19.66,0,0,0-9.81,2.28A12.7,12.7,0,0,0,128.12,31.93Z"/><rect class="cls-1" x="193.46" y="26.55" width="11.86" height="40.89"/><path class="cls-1" d="M291.6,28.53a22.27,22.27,0,0,0-10.79-2.59,22.6,22.6,0,0,0-11.17,2.74,20.1,20.1,0,0,0-7.83,7.45A20.82,20.82,0,0,0,259,47a20.57,20.57,0,0,0,2.89,10.87A20.24,20.24,0,0,0,270,65.31a29.2,29.2,0,0,0,22.11,1.06,18.6,18.6,0,0,0,7.07-4.94l-6.31-6.84a13.7,13.7,0,0,1-4.56,3,15,15,0,0,1-5.7,1,14.65,14.65,0,0,1-6.38-1.3,10.27,10.27,0,0,1-4.18-3.87,11.32,11.32,0,0,1-1.13-3h30.92c.05-.51.1-1,.15-1.6s.08-1.14.08-1.59a21.76,21.76,0,0,0-2.81-11.33A18.65,18.65,0,0,0,291.6,28.53Zm-16.11,7.75a10.57,10.57,0,0,1,5.4-1.37,10.18,10.18,0,0,1,5.32,1.37,9.15,9.15,0,0,1,3.57,3.65,10.37,10.37,0,0,1,1.12,3.49H270.81A10.34,10.34,0,0,1,271.92,40,9,9,0,0,1,275.49,36.28Z"/><path class="cls-1" d="M102.12,58.62a4.85,4.85,0,0,1-3.73-1.37,5.81,5.81,0,0,1-1.29-4V36.58h10.11V27.46H97.1V17.51H85.24V53.38q0,7.21,4,10.94t11.32,3.73a22.44,22.44,0,0,0,5.24-.61,12.79,12.79,0,0,0,4.34-2L107,57.1A8.11,8.11,0,0,1,102.12,58.62Z"/><path class="cls-1" d="M204.71,9.45a7.69,7.69,0,0,0-5.32-1.82,7.51,7.51,0,0,0-5.32,1.9,6.13,6.13,0,0,0-2,4.71,6.16,6.16,0,0,0,2,4.71,7.51,7.51,0,0,0,5.32,1.9,7.34,7.34,0,0,0,5.32-1.9,6.56,6.56,0,0,0,2-4.94A5.71,5.71,0,0,0,204.71,9.45Z"/><rect class="cls-1" x="239.18" y="11.05" width="11.86" height="56.39"/><path class="cls-1" d="M227.57,9.45a7.69,7.69,0,0,0-5.32-1.82,7.51,7.51,0,0,0-5.32,1.9,6.13,6.13,0,0,0-2.05,4.71A6.16,6.16,0,0,0,216.93,19a7.51,7.51,0,0,0,5.32,1.9,7.34,7.34,0,0,0,5.32-1.9A6.56,6.56,0,0,0,229.62,14,5.71,5.71,0,0,0,227.57,9.45Z"/><rect class="cls-1" x="216.32" y="26.55" width="11.86" height="40.89"/><path class="cls-1" d="M46,.44,31.53,4.73A10.5,10.5,0,0,0,24,14.81v50.7a10.51,10.51,0,0,0,7.53,10.08L46,79.88A10.53,10.53,0,0,0,59.5,69.79V10.53A10.52,10.52,0,0,0,46,.44Z"/><path class="cls-1" d="M11.15,15.53,3.26,18.77A5.26,5.26,0,0,0,0,23.63V57.49a5.25,5.25,0,0,0,3.49,4.95l7.89,2.82a5.25,5.25,0,0,0,7-5V20.39A5.26,5.26,0,0,0,11.15,15.53Z"/></svg>