<svg width="32" height="31" viewBox="0 0 32 31" fill="none" xmlns="http://www.w3.org/2000/svg">
<path fill-rule="evenodd" clip-rule="evenodd" d="M0 0H12.8V3.84416C7.79716 5.16271 4.10813 9.7181 4.10813 15.1351C4.10813 20.5521 7.79716 25.1075 12.8 26.426V30.4H20V26.0263C24.3646 24.3355 27.4595 20.0967 27.4595 15.1351C27.4595 10.1735 24.3646 5.93469 20 4.2439V0H32V30.4H0V0Z" fill="white"/>
<path d="M18.5368 11.0291C21.6016 13.0027 21.6016 17.4839 18.5367 19.4574V19.4574C15.2012 21.6053 10.8108 19.2105 10.8108 15.2433V15.2433C10.8108 11.276 15.2012 8.88123 18.5368 11.0291V11.0291Z" fill="white"/>
</svg>
