<svg width="96" height="23" viewBox="0 0 96 23" fill="none" xmlns="http://www.w3.org/2000/svg">
<path fill-rule="evenodd" clip-rule="evenodd" d="M40.2526 7.13525H46.517V9.01662C44.0686 9.66193 42.2631 11.8914 42.2631 14.5425C42.2631 17.1936 44.0686 19.4231 46.517 20.0684V22.0133H50.0408V19.8728C52.1768 19.0453 53.6915 16.9708 53.6915 14.5425C53.6915 12.1142 52.1768 10.0397 50.0408 9.21226V7.13525H55.9137V22.0133H40.2526V7.13525Z" fill="white"/>
<path d="M49.3246 12.533C50.8246 13.4989 50.8246 15.692 49.3246 16.6579V16.6579C47.6922 17.7091 45.5435 16.5371 45.5435 14.5954V14.5954C45.5435 12.6538 47.6922 11.4818 49.3246 12.533V12.533Z" fill="white"/>
<path d="M9.64144 21.1109C9.18934 21.4451 8.62914 21.7006 7.96082 21.8775C7.31216 22.0348 6.63402 22.1134 5.92639 22.1134C4.01972 22.1134 2.55533 21.6318 1.5332 20.6687C0.511065 19.7055 0 18.2902 0 16.4229V2.50619H4.59959V6.36866H8.52103V9.9068H4.59959V16.3639C4.59959 17.0322 4.76666 17.5531 5.10082 17.9266C5.43498 18.2804 5.91656 18.4573 6.54556 18.4573C7.25319 18.4573 7.8822 18.2608 8.43257 17.8676L9.64144 21.1109Z" fill="white"/>
<path d="M12.2393 21.8775V6.01484H16.6325V10.4965L16.0133 9.19917C16.4851 8.07876 17.2418 7.23354 18.2836 6.6635C19.3254 6.07381 20.5933 5.77897 22.0871 5.77897V10.0247C21.8906 10.0051 21.7137 9.99526 21.5564 9.99526C21.3992 9.9756 21.2321 9.96577 21.0552 9.96577C19.7972 9.96577 18.775 10.3294 17.9888 11.0567C17.2222 11.7643 16.8389 12.8749 16.8389 14.3885V21.8775H12.2393Z" fill="white"/>
<path d="M33.5154 21.8775V18.7816L33.2205 18.1035V12.5604C33.2205 11.5776 32.9159 10.811 32.3065 10.2606C31.7168 9.71024 30.8028 9.43505 29.5645 9.43505C28.7192 9.43505 27.8838 9.57264 27.0583 9.84783C26.2524 10.1034 25.5644 10.4572 24.9944 10.9093L23.3432 7.69546C24.2081 7.08611 25.2499 6.61436 26.4686 6.2802C27.6873 5.94605 28.9256 5.77897 30.1836 5.77897C32.6014 5.77897 34.4785 6.349 35.8152 7.48907C37.1518 8.62914 37.8201 10.408 37.8201 12.8258V21.8775H33.5154ZM28.6799 22.1134C27.4416 22.1134 26.3801 21.907 25.4956 21.4942C24.6111 21.0618 23.9329 20.4819 23.4612 19.7546C22.9894 19.0273 22.7535 18.2116 22.7535 17.3074C22.7535 16.3639 22.9796 15.5383 23.4317 14.8307C23.9034 14.1231 24.6405 13.5727 25.643 13.1796C26.6455 12.7668 27.9526 12.5604 29.5645 12.5604H33.7807V15.2435H30.0657C28.9846 15.2435 28.2377 15.4204 27.8249 15.7742C27.4317 16.128 27.2352 16.5703 27.2352 17.101C27.2352 17.6907 27.4612 18.1625 27.9133 18.5163C28.3851 18.8504 29.0239 19.0175 29.8298 19.0175C30.5964 19.0175 31.2844 18.8406 31.8937 18.4868C32.5031 18.1133 32.9453 17.5728 33.2205 16.8651L33.9282 18.988C33.594 20.0102 32.9847 20.7866 32.1001 21.3173C31.2156 21.848 30.0755 22.1134 28.6799 22.1134Z" fill="white"/>
<path d="M58.6832 21.8775V0H63.2828V21.8775H58.6832Z" fill="white"/>
<path d="M75.4239 22.1134C73.6156 22.1134 72.0234 21.7596 70.6475 21.052C69.2912 20.3443 68.2396 19.3812 67.4926 18.1625C66.7457 16.9241 66.3722 15.5187 66.3722 13.9462C66.3722 12.354 66.7358 10.9486 67.4631 9.72989C68.2101 8.49154 69.2224 7.52838 70.5 6.84041C71.7777 6.13278 73.2224 5.77897 74.8343 5.77897C76.3871 5.77897 77.7827 6.11313 79.0211 6.78144C80.2791 7.4301 81.2717 8.37361 81.999 9.61196C82.7263 10.8307 83.0899 12.2951 83.0899 14.0052C83.0899 14.1821 83.0801 14.3885 83.0604 14.6243C83.0408 14.8405 83.0211 15.0469 83.0015 15.2435H70.1167V12.5604H80.5837L78.8147 13.3565C78.8147 12.5309 78.6476 11.8135 78.3134 11.2041C77.9793 10.5948 77.5173 10.123 76.9277 9.78886C76.338 9.43505 75.65 9.25814 74.8637 9.25814C74.0775 9.25814 73.3797 9.43505 72.7703 9.78886C72.1806 10.123 71.7187 10.6046 71.3846 11.2336C71.0504 11.843 70.8833 12.5702 70.8833 13.4155V14.1231C70.8833 14.988 71.0701 15.7546 71.4435 16.4229C71.8367 17.0715 72.3772 17.5728 73.0652 17.9266C73.7728 18.2608 74.5984 18.4278 75.5419 18.4278C76.3871 18.4278 77.1242 18.3001 77.7532 18.0445C78.4019 17.789 78.9916 17.4057 79.5223 16.8946L81.9695 19.5482C81.2422 20.3738 80.3282 21.0126 79.2275 21.4647C78.1267 21.8972 76.8589 22.1134 75.4239 22.1134Z" fill="white"/>
<path d="M86.1522 21.8775V6.01484H90.5454V10.4965L89.9262 9.19917C90.3979 8.07876 91.1547 7.23354 92.1965 6.6635C93.2383 6.07381 94.5061 5.77897 96 5.77897V10.0247C95.8034 10.0051 95.6265 9.99526 95.4693 9.99526C95.312 9.9756 95.1449 9.96577 94.968 9.96577C93.71 9.96577 92.6879 10.3294 91.9017 11.0567C91.1351 11.7643 90.7518 12.8749 90.7518 14.3885V21.8775H86.1522Z" fill="white"/>
</svg>
