<svg id="Layer_1" data-name="Layer 1" xmlns="http://www.w3.org/2000/svg" viewBox="0 0 250.12 57"><defs><style>.cls-1{fill:#fff;}</style></defs><title>wordmark</title><path class="cls-1" d="M92.32,19.3q-5.17-4.39-14.52-4.4a36.07,36.07,0,0,0-9.57,1.29,25.57,25.57,0,0,0-8.06,3.65l4.26,8.28a16.4,16.4,0,0,1,5.32-2.74,20.24,20.24,0,0,1,6.46-1.06q4.79,0,7.06,2.13a7.58,7.58,0,0,1,2.36,5.93H76.21A27,27,0,0,0,66.1,34a11.67,11.67,0,0,0-5.7,4.26,11.54,11.54,0,0,0-1.75,6.38,11.38,11.38,0,0,0,1.82,6.31,12.76,12.76,0,0,0,5.25,4.48A19.18,19.18,0,0,0,73.93,57a16.92,16.92,0,0,0,8.81-2,10.32,10.32,0,0,0,3.65-3.66v5.1h11.1V33.06Q97.49,23.71,92.32,19.3ZM82.21,47.65A10.41,10.41,0,0,1,76.89,49,8.41,8.41,0,0,1,72,47.73a4.65,4.65,0,0,1-.23-7.07c1.07-.91,3-1.37,5.78-1.37h8.13v4.18A8.22,8.22,0,0,1,82.21,47.65Z"/><path class="cls-1" d="M240.32,17.18a12.92,12.92,0,0,0-4.26,3.7V15.5H224.74V56.39H236.6V37.09c0-3.9,1-6.77,3-8.59a11.2,11.2,0,0,1,7.9-2.81,10.74,10.74,0,0,1,1.3.07c.4,0,.86,0,1.36.08V14.9A19.62,19.62,0,0,0,240.32,17.18Z"/><path class="cls-1" d="M42.87,20.88V15.5H31.55V56.39H43.4V37.09c0-3.9,1-6.77,3-8.59a11.2,11.2,0,0,1,7.9-2.81,10.46,10.46,0,0,1,1.29.07c.41,0,.87,0,1.37.08V14.9a19.59,19.59,0,0,0-9.8,2.28A12.92,12.92,0,0,0,42.87,20.88Z"/><rect class="cls-1" x="108.22" y="15.5" width="11.86" height="40.89"/><path class="cls-1" d="M206.36,17.48a22.38,22.38,0,0,0-10.79-2.58,22.74,22.74,0,0,0-11.18,2.73,20.15,20.15,0,0,0-7.82,7.45A20.74,20.74,0,0,0,173.75,36a20.71,20.71,0,0,0,2.89,10.87,20.35,20.35,0,0,0,8.13,7.44A26.5,26.5,0,0,0,197.09,57a26.8,26.8,0,0,0,9.8-1.67A18.79,18.79,0,0,0,214,50.39l-6.31-6.84a13.87,13.87,0,0,1-4.56,3,15,15,0,0,1-5.7,1A14.8,14.8,0,0,1,191,46.21a10.23,10.23,0,0,1-4.18-3.88,10.76,10.76,0,0,1-1.13-3h30.92c0-.5.1-1,.15-1.59s.08-1.14.08-1.6A21.63,21.63,0,0,0,214,24.78,18.59,18.59,0,0,0,206.36,17.48Zm-16.11,7.75a10.56,10.56,0,0,1,5.39-1.37A10.15,10.15,0,0,1,201,25.23a9.15,9.15,0,0,1,3.57,3.65,10.36,10.36,0,0,1,1.13,3.5H185.57a10.33,10.33,0,0,1,1.1-3.42A9.08,9.08,0,0,1,190.25,25.23Z"/><path class="cls-1" d="M16.87,47.58a4.88,4.88,0,0,1-3.72-1.37,5.84,5.84,0,0,1-1.29-4V25.54H22V16.42H11.86v-10H0V42.33c0,4.82,1.32,8.46,4,11S10.36,57,15.28,57a21.92,21.92,0,0,0,5.24-.61,12.54,12.54,0,0,0,4.33-2l-3.11-8.36A8.19,8.19,0,0,1,16.87,47.58Z"/><path class="cls-1" d="M119.46-1.6a7.72,7.72,0,0,0-5.32-1.82,7.52,7.52,0,0,0-5.32,1.9,6.2,6.2,0,0,0-2,4.71,6.17,6.17,0,0,0,2,4.71,7.52,7.52,0,0,0,5.32,1.9,7.33,7.33,0,0,0,5.32-1.9A6.56,6.56,0,0,0,121.52,3,5.72,5.72,0,0,0,119.46-1.6Z"/><rect class="cls-1" x="153.93" width="11.86" height="56.39"/><path class="cls-1" d="M142.32-1.6A7.72,7.72,0,0,0,137-3.42a7.52,7.52,0,0,0-5.32,1.9,6.2,6.2,0,0,0-2.05,4.71,6.17,6.17,0,0,0,2.05,4.71A7.52,7.52,0,0,0,137,9.8a7.33,7.33,0,0,0,5.32-1.9A6.56,6.56,0,0,0,144.38,3,5.72,5.72,0,0,0,142.32-1.6Z"/><rect class="cls-1" x="131.08" y="15.5" width="11.86" height="40.89"/></svg>