<svg id="Layer_1" data-name="Layer 1" xmlns="http://www.w3.org/2000/svg" viewBox="0 0 105 50.38"><title>games-icon</title><path d="M14.42,17.58a7.65,7.65,0,1,0,7.64,7.64A7.65,7.65,0,0,0,14.42,17.58Zm0,11.34a3.7,3.7,0,1,1,3.7-3.7A3.7,3.7,0,0,1,14.42,28.92Z"/><path d="M97.62,0H7.44C3.21,0,0,4,0,9.33V33.72l0,.36C1.43,44,6.64,50.44,13.33,50.44h78.4c6.69,0,11.9-6.42,13.27-16.36l0-24.75C105,4,101.84,0,97.62,0Zm4,33.54c-.9,6.16-4,12.66-9.93,12.66H13.33c-6,0-9-6.5-9.93-12.66V9.33c0-3,1.66-5.09,4-5.09H97.62c2.38,0,4,2.09,4,5.09Z"/><rect x="31.56" y="12.88" width="41.94" height="24.68" rx="3.97"/><polygon points="92.57 19.55 88.62 19.55 88.62 23.25 84.92 23.25 84.92 27.2 88.62 27.2 88.62 30.89 92.57 30.89 92.57 27.2 96.27 27.2 96.27 23.25 92.57 23.25 92.57 19.55"/></svg>