<svg width="128" height="30" viewBox="0 0 128 30" fill="none" xmlns="http://www.w3.org/2000/svg">
<path fill-rule="evenodd" clip-rule="evenodd" d="M53.6701 9.51367H62.0227V12.0222C58.7581 12.8826 56.3508 15.8552 56.3508 19.39C56.3508 22.9249 58.7581 25.8975 62.0227 26.7579V29.351H66.721V26.497C69.5691 25.3937 71.5887 22.6277 71.5887 19.39C71.5887 16.1523 69.5691 13.3863 66.721 12.283V9.51367H74.5516V29.3511H53.6701V9.51367Z" fill="white"/>
<path d="M65.7662 16.7107C67.7661 17.9985 67.7661 20.9227 65.7662 22.2105V22.2105C63.5896 23.6121 60.7246 22.0494 60.7246 19.4606V19.4606C60.7246 16.8718 63.5896 15.3091 65.7662 16.7107V16.7107Z" fill="white"/>
<path d="M12.8553 28.1479C12.2525 28.5934 11.5055 28.9341 10.6144 29.17C9.74955 29.3797 8.84536 29.4845 7.90185 29.4845C5.35963 29.4845 3.4071 28.8424 2.04426 27.5582C0.68142 26.274 0 24.387 0 21.8972V3.34158H6.13278V8.49154H11.3614V13.2091H6.13278V21.8185C6.13278 22.7096 6.35555 23.4042 6.8011 23.9021C7.24664 24.3739 7.88875 24.6098 8.72742 24.6098C9.67093 24.6098 10.5096 24.3477 11.2434 23.8235L12.8553 28.1479Z" fill="white"/>
<path d="M16.3191 29.17V8.01979H22.1767V13.9953L21.3511 12.2656C21.9801 10.7717 22.9891 9.64472 24.3782 8.88467C25.7672 8.09842 27.4577 7.70529 29.4495 7.70529V13.3663C29.1874 13.3401 28.9516 13.327 28.7419 13.327C28.5322 13.3008 28.3094 13.2877 28.0736 13.2877C26.3962 13.2877 25.0334 13.7725 23.985 14.7423C22.9629 15.6858 22.4519 17.1665 22.4519 19.1846V29.17H16.3191Z" fill="white"/>
<path d="M44.6872 29.17V25.0422L44.294 24.138V16.7472C44.294 15.4368 43.8878 14.4147 43.0754 13.6808C42.2891 12.947 41.0704 12.5801 39.4193 12.5801C38.2923 12.5801 37.1784 12.7635 36.0777 13.1304C35.0031 13.4712 34.0858 13.9429 33.3258 14.5457L31.1243 10.2606C32.2775 9.44815 33.6665 8.81915 35.2914 8.37361C36.9164 7.92806 38.5675 7.70529 40.2448 7.70529C43.4685 7.70529 45.9714 8.46534 47.7536 9.98543C49.5357 11.5055 50.4268 13.8774 50.4268 17.101V29.17H44.6872ZM38.2399 29.4845C36.5888 29.4845 35.1735 29.2093 33.9941 28.659C32.8147 28.0824 31.9105 27.3092 31.2815 26.3395C30.6525 25.3698 30.338 24.2821 30.338 23.0766C30.338 21.8186 30.6394 20.7178 31.2422 19.7743C31.8712 18.8308 32.8541 18.0969 34.1907 17.5728C35.5273 17.0224 37.2702 16.7472 39.4193 16.7472H45.041V20.3247H40.0876C38.6461 20.3247 37.6502 20.5605 37.0998 21.0323C36.5757 21.504 36.3136 22.0937 36.3136 22.8014C36.3136 23.5876 36.615 24.2166 37.2178 24.6884C37.8468 25.1339 38.6985 25.3567 39.7731 25.3567C40.7952 25.3567 41.7125 25.1208 42.525 24.6491C43.3374 24.1511 43.9271 23.4304 44.294 22.4869L45.2375 25.3174C44.792 26.6802 43.9795 27.7155 42.8002 28.4231C41.6208 29.1307 40.1007 29.4845 38.2399 29.4845Z" fill="white"/>
<path d="M78.2442 29.17V0H84.377V29.17H78.2442Z" fill="white"/>
<path d="M100.565 29.4845C98.1541 29.4845 96.0312 29.0128 94.1966 28.0693C92.3882 27.1258 90.9861 25.8416 89.9901 24.2166C88.9942 22.5655 88.4963 20.6916 88.4963 18.5949C88.4963 16.472 88.9811 14.5981 89.9508 12.9732C90.9468 11.3221 92.2965 10.0378 94 9.12055C95.7036 8.17704 97.6299 7.70529 99.779 7.70529C101.849 7.70529 103.71 8.15083 105.361 9.04192C107.039 9.9068 108.362 11.1648 109.332 12.8159C110.302 14.4409 110.787 16.3934 110.787 18.6735C110.787 18.9094 110.773 19.1846 110.747 19.4991C110.721 19.7874 110.695 20.0626 110.669 20.3247H93.489V16.7472H107.445L105.086 17.8087C105.086 16.7079 104.863 15.7513 104.418 14.9388C103.972 14.1264 103.356 13.4974 102.57 13.0518C101.784 12.5801 100.867 12.3442 99.8183 12.3442C98.77 12.3442 97.8396 12.5801 97.0271 13.0518C96.2409 13.4974 95.625 14.1395 95.1794 14.9781C94.7339 15.7906 94.5111 16.7603 94.5111 17.8873V18.8308C94.5111 19.984 94.7601 21.0061 95.258 21.8972C95.7822 22.7621 96.503 23.4304 97.4202 23.9021C98.3638 24.3477 99.4645 24.5704 100.723 24.5704C101.849 24.5704 102.832 24.4001 103.671 24.0594C104.536 23.7187 105.322 23.2076 106.03 22.5262L109.293 26.0643C108.323 27.1651 107.104 28.0169 105.637 28.6196C104.169 29.1962 102.478 29.4845 100.565 29.4845Z" fill="white"/>
<path d="M114.87 29.17V8.01979H120.727V13.9953L119.902 12.2656C120.531 10.7717 121.54 9.64472 122.929 8.88467C124.318 8.09842 126.008 7.70529 128 7.70529V13.3663C127.738 13.3401 127.502 13.327 127.292 13.327C127.083 13.3008 126.86 13.2877 126.624 13.2877C124.947 13.2877 123.584 13.7725 122.536 14.7423C121.513 15.6858 121.002 17.1665 121.002 19.1846V29.17H114.87Z" fill="white"/>
</svg>
