<svg id="Layer_1" data-name="Layer 1" xmlns="http://www.w3.org/2000/svg" viewBox="0 0 89.3 54.34"><title>movies-icon</title><path d="M89.3,52.28V36.93a2,2,0,0,0-2-2,7.79,7.79,0,0,1,0-15.58,2,2,0,0,0,2-2V2a2,2,0,0,0-2-2L2,.06a2,2,0,0,0-2,2V17.41a2,2,0,0,0,2,2A7.79,7.79,0,1,1,2,35a2,2,0,0,0-2,2V52.34a2,2,0,0,0,2,2l85.27-.06A2,2,0,0,0,89.3,52.28ZM4,50.34V38.82A11.79,11.79,0,0,0,4,15.58V4.06L85.27,4V15.52a11.79,11.79,0,0,0,0,23.24V50.28Z"/><rect x="57.9" y="7.16" width="8" height="8"/><rect x="57.92" y="23.16" width="8" height="8"/><rect x="57.93" y="39.16" width="8" height="8"/></svg>